<svg xmlns="http://www.w3.org/2000/svg" xmlns:xlink="http://www.w3.org/1999/xlink" width="500" zoomAndPan="magnify" viewBox="0 0 375 374.999991" height="500" preserveAspectRatio="xMidYMid meet" version="1.0"><defs><g/><clipPath id="e6a35d3f55"><path d="M 190 194 L 333 194 L 333 256 L 190 256 Z M 190 194 " clip-rule="nonzero"/></clipPath><clipPath id="ac5c50b28f"><path d="M 328.023438 191.757812 L 339.566406 222.671875 L 199.042969 275.148438 L 187.5 244.230469 Z M 328.023438 191.757812 " clip-rule="nonzero"/></clipPath><clipPath id="c0f0352423"><path d="M 328.023438 191.757812 L 339.566406 222.671875 L 199.042969 275.148438 L 187.5 244.230469 Z M 328.023438 191.757812 " clip-rule="nonzero"/></clipPath></defs><rect x="-37.5" width="450" fill="#ffffff" y="-37.499999" height="449.999989" fill-opacity="1"/><rect x="-37.5" width="450" fill="#ffffff" y="-37.499999" height="449.999989" fill-opacity="1"/><rect x="-37.5" width="450" fill="#03300a" y="-37.499999" height="449.999989" fill-opacity="1"/><g clip-path="url(#e6a35d3f55)"><g clip-path="url(#ac5c50b28f)"><g clip-path="url(#c0f0352423)"><path fill="#65cd2b" d="M 287.285156 230.261719 C 285.054688 226.152344 286.671875 220.957031 290.742188 218.375 C 292.480469 217.265625 293.523438 217.539062 292.242188 218.371094 C 288.171875 221.003906 286.582031 226.222656 288.84375 230.3125 C 290.164062 232.652344 292.570312 234.046875 295.292969 234.226562 C 291.953125 234.550781 288.835938 233.070312 287.285156 230.261719 Z M 303.132812 234.78125 C 313.84375 226.777344 323.632812 217.566406 332.289062 207.296875 C 333.003906 206.558594 333.179688 205.574219 332.6875 205.113281 C 332.253906 204.699219 331.441406 204.835938 330.773438 205.386719 C 330.691406 205.453125 330.609375 205.523438 330.535156 205.601562 C 322.574219 214.578125 313.738281 222.652344 304.191406 229.726562 C 303.402344 230.128906 302.480469 229.960938 302.046875 229.300781 C 301.664062 228.71875 301.773438 227.945312 302.25 227.375 C 302.367188 227.234375 302.5 227.105469 302.660156 226.996094 C 312.242188 220.113281 321.136719 212.210938 329.179688 203.367188 C 329.515625 202.757812 329.523438 202.109375 329.148438 201.753906 C 328.742188 201.367188 328.019531 201.453125 327.394531 201.898438 C 327.269531 201.988281 327.148438 202.085938 327.03125 202.207031 C 318.980469 210.695312 310.132812 218.242188 300.652344 224.773438 C 299.921875 225.066406 299.105469 224.867188 298.699219 224.25 C 298.292969 223.632812 298.421875 222.808594 298.953125 222.25 C 299.042969 222.152344 299.144531 222.058594 299.261719 221.980469 C 308.671875 215.703125 317.5 208.402344 325.566406 200.140625 C 325.980469 199.503906 326.019531 198.78125 325.609375 198.394531 C 325.121094 197.933594 324.191406 198.125 323.527344 198.808594 C 315.523438 206.65625 306.828125 213.546875 297.609375 219.4375 C 296.808594 219.984375 295.753906 219.808594 295.257812 219.058594 C 294.777344 218.328125 294.992188 217.34375 295.714844 216.796875 L 295.78125 216.742188 C 304.949219 211.109375 313.636719 204.46875 321.664062 196.855469 C 322.253906 196.1875 322.359375 195.308594 321.886719 194.863281 C 321.398438 194.402344 320.484375 194.574219 319.84375 195.238281 C 310.878906 203.359375 301.164062 210.253906 290.941406 215.902344 C 286.273438 218.933594 284.097656 224.550781 285.546875 229.628906 C 257.925781 244.304688 226.460938 250.824219 194.867188 248 C 193.574219 247.90625 191.121094 249.1875 190.929688 251.03125 C 190.738281 252.882812 193 254.613281 194.363281 254.710938 C 227.328125 256.863281 259.679688 249.257812 287.660156 233.496094 C 291.085938 237.492188 297.691406 238.308594 303.132812 234.78125 " fill-opacity="1" fill-rule="nonzero"/></g></g></g><g fill="#65cd2b" fill-opacity="1"><g transform="translate(57.020028, 203.531294)"><g><path d="M 31.234375 5.402344 C 32.179688 5.566406 32.753906 5.160156 32.917969 4.210938 L 33.929688 -1.640625 C 34.089844 -2.554688 33.6875 -3.164062 32.742188 -3.328125 L 16.6875 -6.105469 L 24.242188 -49.78125 C 24.402344 -50.726562 24 -51.300781 23.050781 -51.464844 L 16.078125 -52.671875 C 15.128906 -52.835938 14.554688 -52.429688 14.390625 -51.484375 L 5.578125 -0.515625 C 5.414062 0.429688 5.820312 1.007812 6.765625 1.171875 Z M 31.234375 5.402344 "/></g></g></g><g fill="#65cd2b" fill-opacity="1"><g transform="translate(89.793643, 209.380899)"><g><path d="M 26.109375 -35.847656 C 15.429688 -37.007812 6.53125 -30.207031 5.246094 -18.359375 C 3.945312 -6.371094 11.757812 2.097656 22.261719 3.238281 C 27.957031 3.855469 33.769531 2.054688 38.417969 -1.878906 C 39.242188 -2.542969 39.320312 -3.25 38.667969 -3.855469 L 35.617188 -8.050781 C 35.003906 -8.65625 34.46875 -8.675781 33.726562 -8.113281 C 30.625 -5.550781 26.851562 -4.421875 23.386719 -4.796875 C 17.9375 -5.390625 13.558594 -9.550781 14.023438 -16.121094 L 40.652344 -13.230469 C 41.679688 -13.121094 42.246094 -13.414062 42.386719 -14.6875 C 43.632812 -26.183594 36.789062 -34.691406 26.109375 -35.847656 Z M 25.46875 -28.296875 C 29.324219 -27.878906 32.847656 -25.386719 33.425781 -20.492188 L 15.351562 -22.453125 C 17.21875 -27.117188 21.71875 -28.703125 25.46875 -28.296875 Z M 25.46875 -28.296875 "/></g></g></g><g fill="#65cd2b" fill-opacity="1"><g transform="translate(132.023612, 213.772272)"><g><path d="M 18.789062 1.761719 C 20.601562 1.855469 22.492188 1.769531 24.585938 1.234375 C 25.523438 0.996094 25.847656 0.265625 25.605469 -0.601562 L 24.585938 -5.140625 C 24.347656 -6.042969 23.722656 -6.394531 22.785156 -6.15625 C 21.847656 -5.917969 20.988281 -5.855469 20.277344 -5.890625 C 18.003906 -6.003906 16.613281 -7.359375 16.761719 -10.378906 L 17.714844 -29.351562 L 24.714844 -29 C 25.675781 -28.949219 26.199219 -29.421875 26.246094 -30.382812 L 26.472656 -34.929688 C 26.519531 -35.851562 26.050781 -36.410156 25.089844 -36.460938 L 18.089844 -36.8125 L 18.65625 -48.074219 C 18.707031 -49.03125 18.199219 -49.558594 17.273438 -49.605469 L 11.019531 -49.917969 C 10.0625 -49.964844 9.539062 -49.492188 9.492188 -48.535156 L 8.925781 -37.273438 L 5.796875 -37.429688 C 4.839844 -37.476562 4.316406 -36.96875 4.269531 -36.046875 L 4.039062 -31.496094 C 3.992188 -30.539062 4.464844 -30.015625 5.421875 -29.96875 L 8.550781 -29.8125 L 7.542969 -9.773438 C 7.1875 -2.667969 11.859375 1.414062 18.789062 1.761719 Z M 18.789062 1.761719 "/></g></g></g><g fill="#65cd2b" fill-opacity="1"><g transform="translate(158.777396, 215.214746)"><g><path d="M 16.007812 0.839844 C 23.191406 0.847656 30.3125 -2.0625 30.324219 -10.8125 C 30.332031 -16.964844 25.460938 -19.925781 20.875 -22.136719 C 16.644531 -24.167969 12.660156 -25.492188 12.664062 -27.980469 C 12.667969 -29.972656 14.410156 -30.894531 16.972656 -30.890625 C 19.140625 -30.890625 21.953125 -30.246094 24.691406 -29.246094 C 25.613281 -28.925781 26.253906 -29.207031 26.539062 -30.132812 L 28.039062 -34.898438 C 28.398438 -35.824219 28.007812 -36.464844 27.152344 -36.714844 C 23.597656 -37.855469 19.933594 -38.429688 16.980469 -38.433594 C 10.007812 -38.441406 3.566406 -34.894531 3.554688 -26.996094 C 3.550781 -21.410156 7.957031 -18.523438 12.292969 -16.207031 C 16.59375 -13.886719 21.003906 -12.351562 21 -10.078125 C 20.996094 -7.410156 18.933594 -6.523438 16.125 -6.523438 C 13.597656 -6.527344 10.398438 -7.207031 7.230469 -8.421875 C 6.238281 -8.777344 5.703125 -8.53125 5.382812 -7.640625 L 3.667969 -2.804688 C 3.347656 -1.988281 3.523438 -1.3125 4.625 -0.988281 C 8.714844 0.222656 12.449219 0.832031 16.007812 0.839844 Z M 16.007812 0.839844 "/></g></g></g><g fill="#65cd2b" fill-opacity="1"><g transform="translate(191.473231, 215.747913)"><g><path d="M 32.023438 -1.082031 C 41.070312 -1.75 48.515625 -5.726562 53.085938 -11.949219 C 53.511719 -12.480469 53.652344 -12.988281 53.601562 -13.664062 L 52.472656 -28.953125 C 52.402344 -29.914062 51.867188 -30.371094 50.910156 -30.300781 L 31.292969 -28.851562 C 30.332031 -28.78125 29.875 -28.246094 29.945312 -27.289062 L 30.351562 -21.753906 C 30.421875 -20.796875 30.957031 -20.335938 31.914062 -20.410156 L 43.765625 -21.285156 L 44.144531 -16.140625 C 41.082031 -12.667969 36.617188 -10.375 31.367188 -9.988281 C 20.6875 -9.199219 11.984375 -16.4375 11.113281 -28.214844 C 10.253906 -39.816406 17.777344 -48.078125 28.492188 -48.871094 C 33.917969 -49.269531 38.757812 -47.523438 42.339844 -44.402344 C 43.027344 -43.808594 43.707031 -43.789062 44.375 -44.40625 L 49.820312 -48.878906 C 50.558594 -49.539062 50.578125 -50.253906 49.851562 -50.878906 C 44.335938 -56.035156 36.605469 -58.78125 27.808594 -58.128906 C 11.238281 -56.90625 -0.148438 -44.46875 1.109375 -27.476562 C 2.367188 -10.449219 15.457031 0.140625 32.023438 -1.082031 Z M 32.023438 -1.082031 "/></g></g></g><g fill="#65cd2b" fill-opacity="1"><g transform="translate(249.072041, 211.260405)"><g><path d="M 23.132812 -2.914062 C 34.546875 -4.761719 41.851562 -14.160156 40.011719 -25.539062 C 38.164062 -36.949219 28.273438 -43.53125 16.859375 -41.683594 C 5.550781 -39.855469 -1.761719 -30.488281 0.0859375 -19.078125 C 1.925781 -7.699219 11.824219 -1.085938 23.132812 -2.914062 Z M 21.820312 -11.027344 C 15.535156 -10.007812 10.171875 -13.96875 9.109375 -20.539062 C 8.039062 -27.140625 11.878906 -32.589844 18.164062 -33.605469 C 24.59375 -34.648438 29.917969 -30.679688 30.988281 -24.078125 C 32.050781 -17.511719 28.246094 -12.066406 21.820312 -11.027344 Z M 21.820312 -11.027344 "/></g></g></g></svg>